<svg width="98" height="98" viewBox="0 0 98 98" fill="none" xmlns="http://www.w3.org/2000/svg">
<path d="M8.57632 36.0334L4.05371 34.6721L7.5213 39.5388L7.12425 40.8661L0 38.7183L0.461337 37.1905L4.99151 38.5556L1.52014 33.6851L1.91719 32.3654L9.03766 34.5095L8.5801 36.0334H8.57632Z" fill="#1D1D1B"/>
<path d="M13.5903 25.9061L12.7924 27.2826L10.1719 25.7624L8.57235 28.5153L11.1929 30.0355L10.3912 31.4157L3.95898 27.6834L4.76065 26.3032L7.33582 27.7968L8.93537 25.0439L6.3602 23.5503L7.15809 22.1738L13.5903 25.9061Z" fill="#1D1D1B"/>
<path d="M13.4243 14.6535C13.7382 14.4645 14.0256 14.3397 14.2865 14.2716C14.5474 14.2035 14.7894 14.1582 15.0163 14.1279C15.2432 14.0977 15.4171 14.0901 15.5419 14.1052L15.7386 14.1241L15.7877 15.5535C15.7537 15.5535 15.7045 15.546 15.644 15.5384C15.5835 15.5308 15.4663 15.5308 15.2886 15.5384C15.1146 15.5497 14.9407 15.5762 14.7743 15.6216C14.6079 15.667 14.4113 15.7539 14.1882 15.8787C13.9651 16.0035 13.7684 16.1585 13.5983 16.3401C13.1256 16.8468 12.8987 17.4329 12.9214 18.0909C12.9441 18.7488 13.2088 19.3161 13.7193 19.7925C14.226 20.2652 14.8121 20.4921 15.4701 20.4694C16.1281 20.4467 16.6953 20.182 17.1717 19.6715C17.357 19.4749 17.5045 19.2593 17.618 19.0287C17.7314 18.798 17.807 18.5862 17.8448 18.3972C17.8827 18.2081 17.9053 18.0341 17.9129 17.8715C17.9205 17.7089 17.9167 17.5842 17.9016 17.4896L17.8789 17.3535L19.2742 17.3421C19.2856 17.3913 19.2969 17.4594 19.3083 17.5463C19.3196 17.6333 19.3196 17.8073 19.3083 18.0682C19.3007 18.3291 19.2667 18.5825 19.2099 18.8358C19.1532 19.0854 19.0398 19.3803 18.8696 19.7169C18.7032 20.0534 18.4839 20.3635 18.223 20.6471C17.4478 21.4753 16.5176 21.9177 15.4323 21.9668C14.347 22.0198 13.413 21.6795 12.6302 20.9534C11.8512 20.2236 11.4466 19.3161 11.4277 18.2308C11.405 17.1455 11.7832 16.185 12.5546 15.3569C12.8193 15.0695 13.1105 14.835 13.4281 14.646L13.4243 14.6535Z" fill="#1D1D1B"/>
<path d="M22.2844 7.5213L23.1163 8.69355L21.3882 9.91874L24.8596 14.8082L23.5625 15.7308L20.0912 10.8414L18.3593 12.0704L17.5273 10.8981L22.2882 7.5213H22.2844Z" fill="#1D1D1B"/>
<path d="M33.541 10.2326L31.673 5.89527L30.1793 11.6809L28.9088 12.2292L25.9668 5.40368L27.434 4.77218L29.3058 9.11328L30.7957 3.32389L32.0625 2.77936L35.0045 9.60865L33.541 10.2402V10.2326Z" fill="#1D1D1B"/>
<path d="M41.8413 0.419739L42.1211 1.82644L40.0414 2.2424L41.2174 8.12255L39.6556 8.43263L38.4796 2.55248L36.396 2.96843L36.1162 1.56174L41.8375 0.419739H41.8413Z" fill="#1D1D1B"/>
<path d="M48.8449 3.51675L50.3196 0.0075629L52.0213 0L49.4386 5.58898C49.136 6.23183 48.7806 6.72341 48.3722 7.05618C47.9638 7.38895 47.4533 7.55911 46.8445 7.55911C46.7008 7.55911 46.5609 7.54777 46.4172 7.51752C46.2773 7.49105 46.1714 7.46458 46.0995 7.43433L45.9899 7.40407V6.02385C46.16 6.09191 46.3718 6.12595 46.6214 6.12595C47.1546 6.12595 47.5592 5.87637 47.8428 5.381L48.0545 5.00664L45.3811 0.0264701L47.0752 0.0189072L48.8411 3.51675H48.8449Z" fill="#1D1D1B"/>
<path d="M60.8926 1.3984L60.6279 2.80888L58.5444 2.41939L57.444 8.31845L55.8784 8.02728L56.9788 2.132L54.8877 1.74251L55.1524 0.332031L60.8926 1.40218V1.3984Z" fill="#1D1D1B"/>
<path d="M69.091 7.85738L73.1712 6.31455L74.8199 7.16537L70.9552 8.64014L71.6019 13.8737L69.9531 13.0228L69.4767 9.19601L68.1456 9.69894L67.17 11.5897L65.752 10.8561L69.159 4.24609L70.5771 4.97969L69.091 7.86116V7.85738Z" fill="#1D1D1B"/>
<path d="M77.4702 18.5139L80.5067 14.8989L74.6682 16.1619L73.6094 15.2732L78.3891 9.58215L79.6105 10.6069L76.5702 14.2258L82.4126 12.959L83.4676 13.8438L78.6879 19.5349L77.4702 18.5102V18.5139Z" fill="#1D1D1B"/>
<path d="M89.9793 21.5047L88.8487 22.3896L87.5403 20.722L82.8173 24.4202L81.8379 23.1686L86.5609 19.4703L85.2525 17.7989L86.3832 16.9141L89.9793 21.5085V21.5047Z" fill="#1D1D1B"/>
<path d="M87.4913 28.3571L85.6422 28.5953L84.8632 27.0865L92.808 26.2735L93.587 27.7785L88.3232 33.7872L87.5443 32.2784L88.8073 30.9096L87.4913 28.3609V28.3571ZM91.545 27.8806L88.9585 28.1945L89.7904 29.8016L91.545 27.8806Z" fill="#1D1D1B"/>
<path d="M90.5882 41.5465L90.1723 40.0113L92.6869 39.3344L92.3277 38.0033L89.4424 37.2924L89 35.655L92.131 36.4605C92.1348 36.4227 92.1462 36.3735 92.1575 36.3054C92.1726 36.2374 92.2218 36.1164 92.305 35.9349C92.3882 35.7533 92.4865 35.587 92.5999 35.4357C92.7134 35.2845 92.8835 35.1256 93.1142 34.9668C93.3449 34.808 93.602 34.687 93.8894 34.6114C94.5549 34.4336 95.1751 34.513 95.7537 34.8571C96.3322 35.1975 96.7179 35.7269 96.9108 36.4378L97.7654 39.618L90.5882 41.5503V41.5465ZM93.723 36.6042C93.5945 36.8386 93.568 37.0958 93.6436 37.3756L94.0709 38.9638L95.9692 38.4533L95.5419 36.8651C95.4663 36.5853 95.3112 36.3773 95.0806 36.2412C94.8461 36.105 94.589 36.0748 94.3092 36.1504C94.0482 36.2222 93.8554 36.3735 93.7268 36.6042H93.723Z" fill="#1D1D1B"/>
<path d="M6.4436 52.8609L2.09493 52.9138L2.08359 52.0063L4.9348 51.9723L2.05334 49.745L2.04199 48.932L6.39066 48.8752L6.402 49.7828L3.55079 49.8168L6.43225 52.0441L6.4436 52.8571V52.8609Z" fill="#1D1D1B"/>
<path d="M6.77225 59.52C7.31678 59.849 7.66089 60.3103 7.80837 60.904C7.88778 61.233 7.89156 61.5582 7.81972 61.8759C7.74787 62.1935 7.65711 62.4317 7.54745 62.5906L7.39241 62.825L6.6815 62.3939C6.71931 62.3523 6.76469 62.2956 6.81763 62.22C6.87057 62.1443 6.93107 61.9969 6.99536 61.77C7.06343 61.5469 7.06721 61.32 7.01427 61.0969C6.92729 60.7377 6.71553 60.4616 6.37898 60.2688C6.04243 60.0721 5.67942 60.023 5.28236 60.1213C4.88909 60.2158 4.58658 60.4314 4.3786 60.7566C4.17062 61.0855 4.11011 61.4297 4.19709 61.7851C4.25003 62.0082 4.35969 62.2049 4.51851 62.3712C4.67733 62.5414 4.82103 62.6548 4.9496 62.7154L5.14623 62.8099L4.71515 63.5208C4.68868 63.5095 4.65086 63.4905 4.59792 63.4679C4.54876 63.4414 4.45801 63.3847 4.33322 63.2977C4.20465 63.2069 4.08743 63.1086 3.98155 62.999C3.87566 62.8931 3.766 62.7456 3.65256 62.5603C3.53912 62.375 3.45592 62.1822 3.40677 61.978C3.26307 61.3843 3.35382 60.8171 3.68281 60.2725C4.0118 59.728 4.47313 59.3839 5.06682 59.2402C5.65673 59.0965 6.22773 59.1873 6.77225 59.5162V59.52Z" fill="#1D1D1B"/>
<path d="M8.51953 65.6006C9.10943 65.8464 9.51783 66.251 9.75228 66.8144C9.98295 67.3779 9.97917 67.9564 9.73337 68.5425C9.48758 69.1287 9.08296 69.5409 8.51953 69.7715C7.95609 70.0022 7.38131 69.9984 6.79519 69.7526C6.20906 69.5068 5.79689 69.1022 5.56622 68.5388C5.33177 67.9753 5.33933 67.3968 5.58512 66.8106C5.83092 66.2245 6.23553 65.8161 6.79897 65.5817C7.3624 65.351 7.93718 65.3548 8.52709 65.6006H8.51953ZM8.96952 68.1682C9.12456 67.8127 9.1359 67.4648 8.99599 67.1245C8.85608 66.7842 8.6065 66.5422 8.24348 66.3985C7.88046 66.2548 7.51366 66.2623 7.1393 66.4174C6.76494 66.5724 6.50024 66.8258 6.34141 67.1812C6.18638 67.5367 6.17503 67.8846 6.31873 68.2287C6.45864 68.569 6.70821 68.811 7.07123 68.9509C7.43047 69.0909 7.80105 69.0871 8.17542 68.932C8.54978 68.777 8.81826 68.5236 8.9733 68.1682H8.96952Z" fill="#1D1D1B"/>
<path d="M12.7662 72.9706C12.9818 73.3261 13.0574 73.6664 13.0007 73.9841C12.944 74.3055 12.7738 74.5475 12.494 74.7177C12.3352 74.8122 12.1688 74.8651 11.9986 74.8727C11.8284 74.8803 11.6923 74.8651 11.5978 74.8198L11.4616 74.7555C11.4616 74.7555 11.4692 74.8008 11.473 74.8349C11.4768 74.8689 11.473 74.9408 11.4692 75.0466C11.4616 75.1525 11.4427 75.2471 11.4125 75.3416C11.3822 75.4324 11.3293 75.5345 11.2499 75.6403C11.1705 75.75 11.0684 75.8407 10.9436 75.9164C10.6222 76.1092 10.2932 76.1508 9.95284 76.0449C9.61251 75.9391 9.32512 75.6857 9.08689 75.2887L7.9638 73.4244L11.6923 71.182L12.7662 72.9669V72.9706ZM10.1003 73.2013L9.09067 73.8063L9.74486 74.8954C9.8394 75.0504 9.95662 75.145 10.1041 75.1828C10.2516 75.2206 10.3991 75.1903 10.5541 75.0996C10.694 75.0164 10.7848 74.8992 10.8264 74.7441C10.8679 74.5929 10.8453 74.4416 10.7545 74.2904L10.1003 73.2013ZM12.1725 73.7156C12.199 73.6021 12.1763 73.4887 12.1045 73.3677L11.4995 72.358L10.7243 72.8269L11.3293 73.8366C11.4011 73.9538 11.4919 74.0294 11.6053 74.0597C11.7188 74.0899 11.8322 74.0672 11.9532 73.9954C12.0742 73.9236 12.1461 73.8328 12.1725 73.7194V73.7156Z" fill="#1D1D1B"/>
<path d="M12.8493 80.6209C12.7812 80.4772 12.7321 80.3448 12.7094 80.2276C12.6829 80.1066 12.6678 79.9931 12.6602 79.891C12.6527 79.7889 12.6489 79.7095 12.6527 79.6566L12.664 79.5658L10.8187 81.1049L10.2363 80.4091L15.0388 76.4045L15.6211 77.1003L15.2354 77.4218C15.2921 77.4255 15.3715 77.4369 15.4736 77.452C15.572 77.4671 15.7459 77.5314 15.9841 77.6486C16.2261 77.7659 16.4266 77.9247 16.5892 78.1175C16.956 78.56 17.1072 79.0856 17.0392 79.6906C16.9711 80.2994 16.695 80.8024 16.2148 81.207C15.7308 81.6078 15.1862 81.7893 14.5774 81.7477C13.9686 81.7061 13.477 81.4641 13.1102 81.0217C13.0081 80.8969 12.9212 80.7645 12.8531 80.6209H12.8493ZM14.9896 78.144C14.6039 78.1213 14.256 78.2385 13.9459 78.4919C13.6396 78.749 13.4619 79.0667 13.4127 79.4524C13.3636 79.8381 13.4506 80.1633 13.6737 80.428C13.893 80.6927 14.1993 80.8364 14.585 80.8591C14.9745 80.8818 15.3186 80.7646 15.6287 80.5112C15.935 80.2541 16.1127 79.9364 16.1619 79.5507C16.211 79.165 16.124 78.8398 15.9009 78.5751C15.6816 78.3104 15.3753 78.1667 14.9896 78.144Z" fill="#1D1D1B"/>
<path d="M18.4839 83.8691C18.3137 84.1301 18.2494 84.4288 18.291 84.7653C18.3326 85.1019 18.4839 85.3893 18.7448 85.6237C18.9339 85.7939 19.1494 85.9073 19.3914 85.9678C19.6334 86.0283 19.8225 86.0472 19.9624 86.0283L20.178 85.9943L20.2271 86.8262C20.1969 86.8338 20.1553 86.8376 20.0985 86.8451C20.0418 86.8527 19.9359 86.8527 19.7771 86.8489C19.6183 86.8451 19.4633 86.8262 19.312 86.7922C19.157 86.7619 18.9792 86.6977 18.7713 86.6031C18.5633 86.5086 18.378 86.3838 18.204 86.2325C17.7427 85.8241 17.4969 85.2985 17.4667 84.6632C17.4326 84.028 17.6293 83.4721 18.0528 82.9994C18.4574 82.5418 18.9679 82.2961 19.5843 82.262C20.2006 82.228 20.7338 82.4133 21.1876 82.8179C21.6414 83.2225 21.8872 83.7141 21.9174 84.2851C21.9515 84.8561 21.7624 85.3742 21.3578 85.8279L21.0212 86.1342L18.4839 83.8729V83.8691ZM19.8603 83.0599C19.5654 83.0561 19.2855 83.1431 19.0246 83.3208L20.904 84.996C21.0666 84.7313 21.1309 84.4553 21.0968 84.1641C21.059 83.8729 20.9191 83.6158 20.6695 83.3927C20.4238 83.1733 20.1553 83.0637 19.8603 83.0599Z" fill="#1D1D1B"/>
<path d="M28.0433 87.8928L28.6597 88.2785L26.3492 91.9654L25.5816 91.4852L27.0979 89.065L25.0144 89.7381L24.7156 87.5714L23.1993 89.9877L22.4316 89.5075L24.7421 85.8206L25.3585 86.2063L25.6912 88.6604L28.0471 87.8928H28.0433Z" fill="#1D1D1B"/>
<path d="M30.7655 92.0851C30.6899 92.3876 30.7277 92.6901 30.8752 92.9964C31.0226 93.3027 31.2609 93.522 31.5823 93.6582C31.8167 93.7565 32.055 93.7943 32.3045 93.7754C32.5503 93.7527 32.7394 93.7111 32.8642 93.6468L33.057 93.5447L33.3709 94.3161C33.3444 94.3313 33.3066 94.3502 33.2575 94.3766C33.2083 94.4031 33.1062 94.4371 32.9549 94.4863C32.8037 94.5317 32.6524 94.5657 32.4974 94.5846C32.3424 94.6035 32.1495 94.6035 31.9264 94.5808C31.6995 94.5581 31.4802 94.5014 31.2684 94.4144C30.7012 94.1762 30.2966 93.7603 30.0621 93.1704C29.8277 92.5804 29.8277 91.9943 30.0735 91.4082C30.3079 90.8448 30.7126 90.4477 31.2835 90.2133C31.8545 89.9788 32.418 89.9826 32.9814 90.217C33.5449 90.4515 33.9343 90.8372 34.1499 91.3666C34.3654 91.896 34.3579 92.4443 34.1234 93.0078L33.9041 93.4048L30.7693 92.0926L30.7655 92.0851ZM31.8054 90.8712C31.5256 90.962 31.2911 91.1359 31.102 91.3893L33.4238 92.3611C33.4919 92.0586 33.4654 91.775 33.3331 91.5103C33.2045 91.2456 32.9852 91.049 32.6789 90.9204C32.3764 90.7956 32.0852 90.7767 31.8054 90.8675V90.8712Z" fill="#1D1D1B"/>
<path d="M37.1487 96.3516L36.2676 96.1323L37.3113 91.9084L38.1923 92.1278L37.7802 93.7992L39.8448 94.3097L40.257 92.6383L41.1381 92.8576L40.0944 97.0815L39.2133 96.8621L39.6482 95.1L37.5835 94.5895L37.1487 96.3516Z" fill="#1D1D1B"/>
<path d="M44.4398 97.7353L43.536 97.6559L43.9141 93.3224L44.8179 93.4018L44.6704 95.1186L46.7918 95.3039L46.9393 93.5871L47.8431 93.6665L47.4649 98L46.5611 97.9206L46.72 96.1131L44.5986 95.9278L44.4398 97.7353Z" fill="#1D1D1B"/>
<path d="M51.0799 94.2496C51.4997 93.7693 52.0102 93.5084 52.6228 93.4668C53.2316 93.4252 53.7761 93.6143 54.2563 94.034C54.7366 94.4538 54.9975 94.968 55.0391 95.5731C55.0807 96.1819 54.8916 96.7264 54.4757 97.2029C54.0597 97.6831 53.5454 97.944 52.9366 97.9856C52.3278 98.0272 51.7833 97.8382 51.303 97.4222C50.8228 97.0062 50.5619 96.492 50.5203 95.8832C50.4787 95.2743 50.6677 94.7298 51.0837 94.2496H51.0799ZM53.6589 94.6353C53.3715 94.3744 53.0425 94.2571 52.6757 94.2798C52.3089 94.3063 51.9988 94.4651 51.7492 94.7638C51.4997 95.0626 51.39 95.4143 51.4165 95.8189C51.4429 96.2235 51.6018 96.5563 51.8892 96.8172C52.1765 97.0781 52.5055 97.1953 52.8723 97.1688C53.2391 97.1424 53.5492 96.9836 53.795 96.6848C54.0408 96.3861 54.1542 96.0344 54.1278 95.6298C54.1013 95.2252 53.9425 94.8924 53.6551 94.6315L53.6589 94.6353Z" fill="#1D1D1B"/>
<path d="M61.275 92.1227L62.2469 96.3655L61.362 96.5697L60.7229 93.7866L59.1536 97.0764L58.3595 97.2579L57.3877 93.0151L58.2726 92.811L58.9116 95.5941L60.4809 92.3042L61.275 92.1227ZM59.4297 90.9656C59.5204 90.8219 59.5469 90.6593 59.5053 90.4816L60.1708 90.3303C60.2503 90.6858 60.1973 91.0072 60.012 91.2984C59.8229 91.5895 59.5431 91.7786 59.1725 91.8618C58.802 91.9488 58.4692 91.8996 58.1705 91.7181C57.8755 91.5366 57.6864 91.2719 57.607 90.9164L58.2688 90.7652C58.3104 90.9391 58.4011 91.0753 58.5486 91.166C58.6923 91.2568 58.8549 91.2832 59.0326 91.2454C59.2104 91.2038 59.3427 91.1131 59.4335 90.9656H59.4297Z" fill="#1D1D1B"/>
<path d="M68.1641 87.3133L69.0489 86.8557L74.2938 91.2989L73.3673 91.7754L71.9947 90.5956L69.4951 91.8813L69.6577 93.685L68.7313 94.1615L68.1641 87.3133ZM69.4006 90.9094L71.2535 89.9565L69.1246 88.096L69.3968 90.9132L69.4006 90.9094Z" fill="#1D1D1B"/>
<path d="M77.3763 85.8083C77.3763 85.9936 77.346 86.1411 77.2817 86.2469L77.191 86.4171C77.2137 86.4095 77.2439 86.3982 77.2855 86.3868C77.3271 86.3755 77.4027 86.3642 77.5124 86.349C77.6221 86.3339 77.728 86.3377 77.8338 86.3528C77.9397 86.3679 78.0569 86.4095 78.1855 86.4814C78.3141 86.5495 78.4313 86.6516 78.5296 86.7839C78.7452 87.0751 78.7981 87.4192 78.6884 87.8162C78.5788 88.2133 78.2989 88.5801 77.849 88.9129C77.6788 89.0376 77.4973 89.1397 77.3082 89.2116C77.1191 89.2834 76.949 89.3288 76.8015 89.3477C76.654 89.3666 76.5179 89.3742 76.3931 89.3704C76.2683 89.3704 76.1738 89.3591 76.1057 89.3439L76.0074 89.3137L76.1322 88.4893C76.1851 88.5007 76.2532 88.5158 76.3402 88.5309C76.4234 88.5461 76.5784 88.5309 76.7977 88.4931C77.017 88.4553 77.2061 88.3759 77.3687 88.2549C77.6107 88.0772 77.762 87.8956 77.8149 87.7179C77.8716 87.5364 77.849 87.3776 77.7469 87.2452C77.6485 87.1091 77.5011 87.041 77.312 87.041C77.1229 87.041 76.9074 87.1318 76.6654 87.3095L76.2608 87.6083L75.8297 87.0259L76.2305 86.7272C76.4196 86.5873 76.5368 86.4436 76.5822 86.2923C76.6276 86.1448 76.6049 86.0125 76.5179 85.8953C76.4309 85.778 76.3099 85.7175 76.1549 85.7175C75.9998 85.7175 75.8259 85.7856 75.6368 85.9255C75.4969 86.0276 75.3797 86.1562 75.2851 86.3074C75.1906 86.4587 75.1301 86.5873 75.1112 86.6931L75.0772 86.8444L74.249 86.7234C74.2528 86.6629 74.2679 86.5797 74.2906 86.4738C74.3133 86.3679 74.4003 86.1864 74.5478 85.9293C74.699 85.6722 74.8994 85.4491 75.149 85.2675C75.5536 84.9688 75.9431 84.8327 76.3213 84.8516C76.6994 84.8743 76.9868 85.018 77.1872 85.2864C77.3082 85.449 77.3649 85.623 77.3649 85.8083H77.3763Z" fill="#1D1D1B"/>
<path d="M81.4523 79.842L84.5077 82.9353L83.8611 83.5743L81.8569 81.5437L82.2502 85.1663L81.6716 85.7373L78.6162 82.6441L79.2628 82.005L81.267 84.0357L80.8737 80.413L81.4523 79.842Z" fill="#1D1D1B"/>
<path d="M85.6648 74.5177L89.1626 77.108L88.6219 77.8378L86.3265 76.1362L87.2719 79.6567L86.7879 80.3109L83.29 77.7206L83.8308 76.9908L86.1261 78.6886L85.1808 75.1681L85.6648 74.5139V74.5177Z" fill="#1D1D1B"/>
<path d="M88.0015 65.7774C88.2322 65.2178 88.6103 64.8245 89.1322 64.5976C89.654 64.3707 90.1796 64.367 90.7052 64.5825C91.2309 64.798 91.5977 65.1724 91.8094 65.7018C92.0174 66.2312 92.0098 66.7757 91.7792 67.3354L91.193 68.761L93.288 69.627L92.9098 70.5496L87.041 68.1295L88.0091 65.785L88.0015 65.7774ZM88.2511 67.5472L90.346 68.4131L90.9321 66.9913C91.0531 66.7001 91.0531 66.4127 90.9359 66.1253C90.8187 65.8379 90.6145 65.6337 90.3195 65.5127C90.0246 65.3917 89.7334 65.3917 89.446 65.5127C89.1586 65.6337 88.9582 65.8379 88.8372 66.1291L88.2511 67.5547V67.5472Z" fill="#1D1D1B"/>
<path d="M89.8584 59.9587L90.0777 58.9868L96.8427 57.8108L96.6158 58.8242L94.831 59.123L94.2146 61.8645L95.7007 62.8968L95.4738 63.9103L89.8584 59.9587ZM93.4092 61.3124L93.8667 59.2818L91.076 59.7204L93.413 61.3124H93.4092Z" fill="#1D1D1B"/>
<path d="M97.3686 49.2579L97.3383 50.2524L94.5741 50.173L94.4834 53.3003L97.2476 53.3835L97.2173 54.378L90.8721 54.1927L90.9023 53.1982L93.5796 53.2776L93.6703 50.1503L90.9931 50.0709L91.0233 49.0764L97.3686 49.2617V49.2579Z" fill="#1D1D1B"/>
<path d="M49.5487 33.6137H35.5725C35.2133 33.6137 34.9259 33.3226 34.9259 32.9671C34.9259 32.6117 35.217 32.3205 35.5725 32.3205H49.5487C49.908 32.3205 50.1954 32.6117 50.1954 32.9671C50.1954 33.3226 49.9042 33.6137 49.5487 33.6137Z" fill="#E30613"/>
<path d="M49.5491 33.6126C49.4395 33.6126 49.3298 33.5862 49.2277 33.5257L37.1233 26.5376C36.8132 26.3598 36.7073 25.9628 36.8851 25.6527C37.0628 25.3426 37.4599 25.2367 37.7699 25.4145L49.8743 32.4026C50.1844 32.5803 50.2903 32.9774 50.1126 33.2874C49.9916 33.4954 49.776 33.6126 49.5529 33.6126H49.5491Z" fill="#E30613"/>
<path d="M49.5491 33.6137C49.326 33.6137 49.1066 33.4965 48.9894 33.2885L42.0013 21.1841C41.8236 20.874 41.9294 20.477 42.2395 20.2992C42.5496 20.1215 42.9429 20.2274 43.1244 20.5375L50.1125 32.6419C50.2902 32.9519 50.1843 33.349 49.8743 33.5267C49.7722 33.5872 49.6625 33.6137 49.5528 33.6137H49.5491Z" fill="#E30613"/>
<path d="M49.5491 33.6133C49.1898 33.6133 48.9024 33.3221 48.9024 32.9667V18.9867C48.9024 18.6274 49.1936 18.34 49.5491 18.34C49.9045 18.34 50.1957 18.6312 50.1957 18.9867V32.9629C50.1957 33.3221 49.9045 33.6095 49.5491 33.6095V33.6133Z" fill="#E30613"/>
<path d="M49.5482 33.6137C49.4386 33.6137 49.3289 33.5872 49.2268 33.5267C48.9167 33.349 48.8109 32.9519 48.9886 32.6419L55.9767 20.5375C56.1544 20.2274 56.5515 20.1215 56.8616 20.2992C57.1716 20.477 57.2775 20.874 57.0998 21.1841L50.1117 33.2885C49.9907 33.4965 49.7751 33.6137 49.552 33.6137H49.5482Z" fill="#E30613"/>
<path d="M49.5482 33.6126C49.3251 33.6126 49.1058 33.4954 48.9886 33.2874C48.8109 32.9774 48.9167 32.5803 49.2268 32.4026L61.3312 25.4145C61.6413 25.2367 62.0346 25.3426 62.2161 25.6527C62.3938 25.9628 62.2879 26.3598 61.9779 26.5376L49.8734 33.5257C49.7714 33.5862 49.6617 33.6126 49.552 33.6126H49.5482Z" fill="#E30613"/>
<path d="M63.5253 33.6137H49.5491C49.1898 33.6137 48.9024 33.3226 48.9024 32.9671C48.9024 32.6117 49.1936 32.3205 49.5491 32.3205H63.5253C63.8845 32.3205 64.1719 32.6117 64.1719 32.9671C64.1719 33.3226 63.8808 33.6137 63.5253 33.6137Z" fill="#E30613"/>
<path d="M70.5924 37.3716C70.8495 37.0086 70.4979 36.5283 70.0781 36.6645C67.2685 37.5644 60.1594 39.4287 49.5486 39.4287C38.9379 39.4287 31.8288 37.5644 29.0192 36.6645C28.5956 36.5283 28.2477 37.0086 28.5049 37.3716L35.3531 47.0521C35.614 47.4189 36.1926 47.2374 36.1926 46.7874V44.2954C36.1926 44.0421 36.4005 43.8341 36.6539 43.8341H62.4434C62.6967 43.8341 62.9047 44.0421 62.9047 44.2954V46.7874C62.9047 47.2374 63.4833 47.4227 63.7442 47.0521L70.5924 37.3716Z" fill="#E30613"/>
<path d="M75.4553 50.3541C75.7011 50.01 75.391 49.5449 74.9788 49.6356C71.5264 50.4222 60.9875 52.589 49.5486 52.589C38.1097 52.589 27.5708 50.4222 24.1183 49.6356C23.7062 49.5411 23.3961 50.0062 23.6419 50.3541L30.6187 60.2161C30.8796 60.5829 31.4581 60.4014 31.4581 59.9514V57.4595C31.4581 57.2061 31.6661 56.9981 31.9195 56.9981H67.1777C67.431 56.9981 67.639 57.2061 67.639 57.4595V59.9514C67.639 60.4014 68.2176 60.5867 68.4785 60.2161L75.4553 50.3541Z" fill="#E30613"/>
<path d="M78.7335 63.6311C78.9755 63.2908 78.6805 62.8332 78.2721 62.9089C74.4113 63.6349 61.3086 65.9265 49.552 65.9265C37.7955 65.9265 24.6928 63.6349 20.8319 62.9089C20.4236 62.8332 20.1286 63.2908 20.3706 63.6311L27.3852 73.5499C27.6461 73.9167 28.2247 73.7352 28.2247 73.2814V70.7932C28.2247 70.5361 28.4327 70.3319 28.686 70.3319H70.4143C70.6714 70.3319 70.8756 70.5398 70.8756 70.7932V73.2814C70.8756 73.7314 71.4542 73.9167 71.7151 73.5499L78.7297 63.6311H78.7335Z" fill="#E30613"/>
</svg>
